<?xml version="1.0" encoding="utf-8"?>
<!-- Generator: Adobe Illustrator 24.0.2, SVG Export Plug-In . SVG Version: 6.00 Build 0)  -->
<svg version="1.1" id="Capa_1" xmlns="http://www.w3.org/2000/svg" xmlns:xlink="http://www.w3.org/1999/xlink" x="0px" y="0px"
	 viewBox="0 0 412.7 412.7" style="enable-background:new 0 0 412.7 412.7;" xml:space="preserve">
<style type="text/css">
	.st0{fill:#878787;}
</style>
<g>
	<g>
		<path class="st0" d="M295.8,35.4L295.8,35.4c-34.4-0.1-67.2,14.9-89.4,41.3c-22.1-26.6-54.9-41.7-89.4-41.3
			C52.2,35.4-0.2,87.7-0.2,152.5c0,110.8,193.4,219,201.2,223.3c3.2,2.1,7.3,2.1,10.5,0c7.8-4.1,201.2-110.8,201.2-223.3
			C412.8,87.9,360.5,35.4,295.8,35.4z M206.4,354.9C176.1,337.1,20.9,242.4,20.9,152.6c0-53.2,43.1-96.2,96.2-96.2
			c32.6-0.4,63,15.9,80.5,43.3c3.6,4.9,10.4,6,15.3,2.4c0.9-0.7,1.7-1.5,2.4-2.4c29.1-44.5,88.6-56.9,133.2-27.9
			c27.2,17.8,43.6,48.1,43.6,80.7C392,243.5,236.7,337.6,206.4,354.9z"/>
	</g>
</g>
</svg>
