<?xml version="1.0" encoding="utf-8"?>
<!-- Generator: Adobe Illustrator 24.0.2, SVG Export Plug-In . SVG Version: 6.00 Build 0)  -->
<svg version="1.1" id="Layer_1" xmlns="http://www.w3.org/2000/svg" xmlns:xlink="http://www.w3.org/1999/xlink" x="0px" y="0px"
	 viewBox="0 0 512 512" style="enable-background:new 0 0 512 512;" xml:space="preserve">
<style type="text/css">
	.st0{fill:#878787;}
</style>
<g>
	<g>
		<g>
			<path class="st0" d="M176.6,188.9c-32.6,15.9-59.5,40.9-77.6,72.4c-3,5.1-1.2,11.6,3.9,14.6c1.7,1,3.5,1.4,5.3,1.4
				c3.7,0,7.3-1.9,9.2-5.3c16.1-27.8,39.8-49.9,68.5-63.9c5.3-2.6,7.5-9,4.9-14.3C188.3,188.6,181.9,186.3,176.6,188.9z"/>
			<path class="st0" d="M501.3,341.3h-21.9c-5.2-108.7-88-197.2-194.2-211.2c1.7-3.9,2.7-8.2,2.7-12.8c0-17.6-14.4-32-32-32
				s-32,14.4-32,32c0,4.6,1,8.9,2.7,12.8c-106.2,14-189,102.5-194.2,211.2H10.7C4.8,341.3,0,346.1,0,352v10.7
				c0,16.1,4.7,31.6,13.6,45c7.9,11.9,21.2,19,35.5,19h413.8c14.3,0,27.6-7.1,35.5-19c8.9-13.4,13.6-28.9,13.6-45V352
				C512,346.1,507.2,341.3,501.3,341.3z M256,106.7c5.9,0,10.7,4.8,10.7,10.7c0,5.9-4.8,10.7-10.7,10.7s-10.7-4.8-10.7-10.7
				C245.3,111.4,250.1,106.7,256,106.7z M256,149.3c108.1,0,196.5,85.2,202.1,192H53.9C59.5,234.6,147.9,149.3,256,149.3z
				 M490.7,362.7c0,11.8-3.5,23.3-10,33.1c-4,5.9-10.6,9.5-17.8,9.5H49.1c-7.1,0-13.8-3.6-17.8-9.5c-6.6-9.9-10-21.3-10-33.1v0
				L490.7,362.7L490.7,362.7z"/>
		</g>
	</g>
</g>
</svg>
